<?xml version="1.0" encoding="UTF-8" standalone="no"?>
<!-- Created with Inkscape (http://www.inkscape.org/) -->

<svg
   width="1000"
   height="1000"
   viewBox="0 0 264.58334 264.58334"
   version="1.1"
   id="svg5"
   xml:space="preserve"
   xmlns:xlink="http://www.w3.org/1999/xlink"
   xmlns="http://www.w3.org/2000/svg"
   xmlns:svg="http://www.w3.org/2000/svg"><defs
     id="defs2"><linearGradient
       id="linearGradient4202"
       x1="0.7414425"
       x2="590.86261"
       y1="3.6658268"
       y2="593.78699"
       gradientUnits="userSpaceOnUse"
       spreadMethod="pad"
       gradientTransform="scale(1.2219423,0.81836924)"><stop
         offset="0"
         stop-color="rgb(132,131,139)"
         stop-opacity="1"
         id="stop4200" /><stop
         offset="1"
         stop-color="rgb(203,206,208)"
         stop-opacity="1"
         id="stop4198" /></linearGradient><linearGradient
       id="linearGradient4194"
       x1="0.7414425"
       x2="590.86261"
       y1="3.6658268"
       y2="593.78699"
       gradientUnits="userSpaceOnUse"
       spreadMethod="pad"
       gradientTransform="scale(1.2219423,0.81836924)"><stop
         offset="0"
         stop-color="rgb(132,131,139)"
         stop-opacity="1"
         id="stop4192" /><stop
         offset="1"
         stop-color="rgb(203,206,208)"
         stop-opacity="1"
         id="stop4190" /></linearGradient><linearGradient
       id="linearGradient4186"
       x1="0.7414425"
       x2="590.86261"
       y1="3.6658268"
       y2="593.78699"
       gradientUnits="userSpaceOnUse"
       spreadMethod="pad"
       gradientTransform="scale(1.2219423,0.81836924)"><stop
         offset="0"
         stop-color="rgb(132,131,139)"
         stop-opacity="1"
         id="stop4184" /><stop
         offset="1"
         stop-color="rgb(203,206,208)"
         stop-opacity="1"
         id="stop4182" /></linearGradient><linearGradient
       id="linearGradient3992"><stop
         style="stop-color:#ffcc00;stop-opacity:1;"
         offset="0.2832374"
         id="stop3990" /><stop
         style="stop-color:#ff0000;stop-opacity:0.58431375;"
         offset="1"
         id="stop3988" /></linearGradient><linearGradient
       id="linearGradient4094"><stop
         id="stop4096"
         offset="0"
         style="stop-color:#232323;stop-opacity:1;" /><stop
         id="stop4098"
         offset="1"
         style="stop-color:#4d4d4d;stop-opacity:1;" /></linearGradient><linearGradient
       id="linearGradient4014"><stop
         id="stop4016"
         offset="0"
         style="stop-color:#a0a0a0;stop-opacity:1;" /><stop
         id="stop4018"
         offset="1"
         style="stop-color:#ffffff;stop-opacity:1;" /></linearGradient><linearGradient
       id="linearGradient4678"><stop
         id="stop4680"
         offset="0"
         style="stop-color:#e5e5e5;stop-opacity:1;" /><stop
         id="stop4682"
         offset="1"
         style="stop-color:#d3cdcd;stop-opacity:1;" /></linearGradient><linearGradient
       id="linearGradient4341"><stop
         style="stop-color:#333333;stop-opacity:1;"
         offset="0"
         id="stop4343" /><stop
         style="stop-color:#484848;stop-opacity:1;"
         offset="1"
         id="stop4345" /></linearGradient><linearGradient
       id="linearGradient4696-5"><stop
         style="stop-color:#ffb638;stop-opacity:1;"
         offset="0"
         id="stop4698-6" /><stop
         style="stop-color:#f0ae26;stop-opacity:1;"
         offset="1"
         id="stop4700-2" /></linearGradient><linearGradient
       id="linearGradient4702-3"><stop
         style="stop-color:#ff0000;stop-opacity:0.58431375;"
         offset="0"
         id="stop4704-1" /><stop
         style="stop-color:#ffcc00;stop-opacity:1;"
         offset="1"
         id="stop4706-8" /></linearGradient><linearGradient
       xlink:href="#linearGradient4702-3"
       id="linearGradient3138"
       gradientUnits="userSpaceOnUse"
       gradientTransform="matrix(-0.88803314,0,0,0.88803314,595.57001,1106.9291)"
       x1="142.96875"
       y1="63.65625"
       x2="177.04297"
       y2="69.791016" /><linearGradient
       xlink:href="#linearGradient4696-5"
       id="linearGradient3141"
       gradientUnits="userSpaceOnUse"
       gradientTransform="matrix(-0.49726789,0,0,0.49726789,555.31016,722.70088)"
       x1="108.08774"
       y1="1025.709"
       x2="80.655251"
       y2="1043.709" /><linearGradient
       xlink:href="#linearGradient4702-3"
       id="linearGradient3144"
       gradientUnits="userSpaceOnUse"
       gradientTransform="matrix(0.88803314,0,0,0.88803314,415.18739,350.00262)"
       x1="113.5146"
       y1="1004.8033"
       x2="78.000107"
       y2="922.07178" /><linearGradient
       xlink:href="#linearGradient4702-3"
       id="linearGradient3148"
       gradientUnits="userSpaceOnUse"
       gradientTransform="matrix(0.88803314,0,0,0.88803314,415.2161,1106.9294)"
       x1="142.96875"
       y1="63.65625"
       x2="176.60477"
       y2="70.667412" /><linearGradient
       id="gradientFill-1"
       x1="0.7414425"
       x2="590.86261"
       y1="3.6658268"
       y2="593.78699"
       gradientUnits="userSpaceOnUse"
       spreadMethod="pad"
       gradientTransform="scale(1.2219423,0.81836924)"><stop
         offset="0"
         stop-color="rgb(203,206,208)"
         stop-opacity="1"
         id="stop813" /><stop
         offset="1"
         stop-color="rgb(132,131,139)"
         stop-opacity="1"
         id="stop815" /></linearGradient><linearGradient
       id="gradientFill-2"
       x1="301.02603"
       x2="703.0675"
       y1="151.4006"
       y2="553.44208"
       gradientUnits="userSpaceOnUse"
       spreadMethod="pad"
       gradientTransform="scale(0.9899476,1.0101545)"><stop
         offset="0"
         stop-color="rgb(39,109,195)"
         stop-opacity="1"
         id="stop818" /><stop
         offset="1"
         stop-color="rgb(22,92,170)"
         stop-opacity="1"
         id="stop820" /></linearGradient><linearGradient
       xlink:href="#linearGradient4702-3"
       id="linearGradient4226"
       gradientUnits="userSpaceOnUse"
       gradientTransform="matrix(0.39355133,0,0,0.39355133,24.583177,17.516907)"
       x1="142.96875"
       y1="63.65625"
       x2="176.60477"
       y2="70.667412" /><linearGradient
       xlink:href="#linearGradient4702-3"
       id="linearGradient4228"
       gradientUnits="userSpaceOnUse"
       gradientTransform="matrix(0.39355133,0,0,0.39355133,24.570457,-317.93176)"
       x1="113.5146"
       y1="1004.8033"
       x2="78.000107"
       y2="922.07178" /><linearGradient
       xlink:href="#linearGradient4696-5"
       id="linearGradient4230"
       gradientUnits="userSpaceOnUse"
       gradientTransform="matrix(-0.22037516,0,0,0.22037516,86.668927,-152.76236)"
       x1="108.08774"
       y1="1025.709"
       x2="80.655251"
       y2="1043.709" /><linearGradient
       xlink:href="#linearGradient4702-3"
       id="linearGradient4232"
       gradientUnits="userSpaceOnUse"
       gradientTransform="matrix(-0.39355133,0,0,0.39355133,104.51097,17.51678)"
       x1="142.96875"
       y1="63.65625"
       x2="177.04297"
       y2="69.791016" /><filter
       style="color-interpolation-filters:sRGB"
       id="filter4240"
       x="0"
       y="0"
       width="1"
       height="1"><feColorMatrix
         values="0.21 0.72 0.072 0 0 0.21 0.72 0.072 0 0 0.21 0.72 0.072 0 0 0 0 0 1 0 "
         id="feColorMatrix4238" /></filter><linearGradient
       xlink:href="#gradientFill-2"
       id="linearGradient4246"
       gradientUnits="userSpaceOnUse"
       gradientTransform="scale(0.9899476,1.0101545)"
       x1="301.02603"
       y1="151.4006"
       x2="703.0675"
       y2="553.44208"
       spreadMethod="pad" /></defs><g
     id="layer1"
     transform="translate(-400.83933,71.8014)"><g
       id="g4257"
       transform="translate(31.625545,43.857374)"><g
         id="g4224"
         transform="matrix(2.7044544,0,0,2.7044544,314.34714,-161.68935)"
         style="stroke-width:0.36976;filter:url(#filter4240)"><path
           id="path4212"
           d="m 96.849087,36.210539 c -0.70976,1.297155 -1.43032,2.353207 -2.16454,3.185311 -0.70975,0.807662 -1.49242,1.453692 -2.349,1.943158 -0.83213,0.465024 -1.77627,0.800402 -2.82865,0.996172 -1.02792,0.17132 -2.20818,0.25831 -3.55426,0.25826 -0.99295,0 -1.88531,-0.05085 -2.66878,-0.147566 -0.003,0 -0.009,0 -0.0123,0 -0.0993,-0.0072 -0.30447,-0.04057 -0.51653,-0.0738 -0.22336,-0.03497 -0.45168,-0.06867 -0.8117,-0.135282 -6.59925,-1.221023 -8.7879,3.360288 -9.26076,4.62424 -0.074,0.197821 -0.11068,0.319735 -0.11068,0.319735 l -8.01861,22.358639 -4.91939,8.363005 h 9.82648 c 4.03583,-8.98594 7.91589,-27.748314 12.06481,-29.405672 0.89927,0.125775 2.01395,0.184449 3.35749,0.184449 1.76214,0 3.33988,-0.211251 4.73491,-0.651798 1.39502,-0.440537 2.64982,-1.123837 3.77564,-2.053863 1.12581,-0.954479 2.14447,-2.17188 3.05002,-3.640352 0.93001,-1.468432 1.81203,-3.232499 2.64417,-5.28834 l -2.2383,-0.836301 z"
           style="font-style:normal;font-weight:bold;font-size:144px;line-height:125%;font-family:Sans;-inkscape-font-specification:'Sans Bold';letter-spacing:0px;word-spacing:0px;fill:#ffcc00;fill-opacity:1;stroke:none;stroke-width:0.0978328" /><path
           id="path4214"
           d="m 96.848837,36.211457 c -0.70976,1.297155 -1.43027,2.351749 -2.16449,3.183853 -0.70974,0.807665 -1.49272,1.453999 -2.3493,1.943465 -0.20608,0.115165 -0.41854,0.220991 -0.6383,0.320101 -0.002,7.94e-4 -0.004,0.0029 -0.006,0.0038 -0.27662,0.194535 -0.63242,0.361535 -1.11464,0.476337 -5.56176,1.324251 -9.35006,6.280735 -9.70589,6.760211 0.16134,-0.132647 0.32374,-0.240943 0.48587,-0.323909 0.0244,-0.01291 0.048,-0.02461 0.0724,-0.0362 0.004,-0.0019 0.008,-0.0039 0.0114,-0.0057 0.0283,-0.01318 0.0575,-0.0249 0.0857,-0.0362 0.89927,0.125775 2.01371,0.184819 3.35724,0.184819 1.76215,0 3.33979,-0.212989 4.73482,-0.653539 1.39502,-0.440534 2.64869,-1.122045 3.77452,-2.052071 1.1258,-0.954477 2.14492,-2.172663 3.05047,-3.641135 0.93001,-1.468438 1.81251,-3.233431 2.64464,-5.289275 l -2.2388,-0.834549 z"
           style="font-style:normal;font-weight:bold;font-size:144px;line-height:125%;font-family:Sans;-inkscape-font-specification:'Sans Bold';letter-spacing:0px;word-spacing:0px;fill:url(#linearGradient4226);fill-opacity:1;stroke:none;stroke-width:0.0978328" /><path
           id="path4216"
           d="m 32.245107,36.210545 c 0.70976,1.297154 1.43031,2.353201 2.16453,3.185305 0.70975,0.807662 1.49242,1.453692 2.34901,1.943158 0.83212,0.465024 1.77626,0.800402 2.82865,0.996172 1.02792,0.171371 2.20818,0.25831 3.55426,0.25826 0.99295,0 1.8853,-0.05085 2.66877,-0.147566 0.003,0 0.009,0 0.0123,0 0.0993,-0.0071 0.30447,-0.04057 0.51654,-0.0738 0.22336,-0.03497 0.45168,-0.06867 0.81169,-0.135282 6.59926,-1.221023 8.78791,3.360288 9.26076,4.62424 0.074,0.197821 0.11069,0.319735 0.11069,0.319735 l 8.0186,22.358639 4.9194,8.363005 h -9.82648 c -4.03584,-8.985935 -7.91589,-27.748309 -12.06481,-29.405667 -0.89927,0.125775 -2.01396,0.184449 -3.35749,0.184449 -1.76214,0 -3.33989,-0.211251 -4.73492,-0.651798 -1.39502,-0.440537 -2.64982,-1.123837 -3.77563,-2.053863 -1.1258,-0.954479 -2.14447,-2.171877 -3.05002,-3.640352 -0.93001,-1.468419 -1.81204,-3.232488 -2.64417,-5.28834 z"
           style="font-style:normal;font-weight:bold;font-size:144px;line-height:125%;font-family:Sans;-inkscape-font-specification:'Sans Bold';letter-spacing:0px;word-spacing:0px;fill:#ffcc00;fill-opacity:1;stroke:none;stroke-width:0.0978328" /><path
           style="font-style:normal;font-weight:bold;font-size:144px;line-height:125%;font-family:Sans;-inkscape-font-specification:'Sans Bold';letter-spacing:0px;word-spacing:0px;fill:url(#linearGradient4228);fill-opacity:1;stroke:none;stroke-width:0.0978328"
           d="m 32.244707,36.210222 c 0.70976,1.297151 1.43031,2.353201 2.16453,3.185303 0.70975,0.807664 1.49242,1.453692 2.34901,1.943158 0.83212,0.465023 1.77627,0.800401 2.82865,0.996174 1.02792,0.171366 2.20818,0.258308 3.55426,0.258257 0.99295,0 1.88531,-0.05086 2.66877,-0.147563 0.003,0 0.009,0 0.0123,0 0.0993,-0.0071 0.30447,-0.04057 0.51654,-0.0738 0.22336,-0.03497 0.45168,-0.06867 0.8117,-0.135281 6.59925,-1.221023 8.7879,3.360285 9.26076,4.624239 0.074,0.197821 0.11068,0.319736 0.11068,0.319736 l 8.01861,22.358641 4.13229,8.363 h -9.03938 c -4.03583,-8.985936 -7.91589,-27.748309 -12.06481,-29.405667 -0.89927,0.125775 -2.01395,0.184449 -3.35749,0.184449 -1.76214,0 -3.33988,-0.211252 -4.73491,-0.651799 -1.39502,-0.440536 -2.64982,-1.123839 -3.77564,-2.053863 -1.1258,-0.954479 -2.14447,-2.171877 -3.05002,-3.640349 -0.93001,-1.468424 -1.81204,-3.232488 -2.64417,-5.288341 z"
           id="path4218" /><path
           d="m 64.538847,69.535913 -4.90009,8.366503 h 9.82158"
           style="font-style:normal;font-weight:bold;font-size:144px;line-height:125%;font-family:Sans;-inkscape-font-specification:'Sans Bold';letter-spacing:0px;word-spacing:0px;fill:url(#linearGradient4230);fill-opacity:1;stroke:none;stroke-width:0.0978328"
           id="path4220" /><path
           id="path4222"
           d="m 32.245767,36.211457 -2.23879,0.834549 c 0.26004,0.642454 0.5248,1.257134 0.79453,1.842482 0.0539,0.117067 0.10763,0.231994 0.16196,0.346773 2.1e-4,5.29e-4 -2.1e-4,0.0016 0,0.0018 0.0541,0.114247 0.10939,0.227177 0.16386,0.339153 0.0181,0.03732 0.0371,0.07344 0.0553,0.110512 0.0913,0.186131 0.18196,0.370885 0.27437,0.550648 4.3e-4,7.94e-4 10e-4,0.0011 0.002,0.0018 0.0551,0.107114 0.1103,0.213344 0.16577,0.318196 0.22369,0.422941 0.45044,0.82769 0.68021,1.213712 0.0574,0.09639 0.11373,0.189812 0.17148,0.283898 0.0224,0.03647 0.0443,0.07248 0.0667,0.108606 0.0357,0.05754 0.0727,0.114827 0.1086,0.171482 0.0566,0.09178 0.1121,0.182652 0.16958,0.272468 0.0916,0.143097 0.18628,0.282988 0.28009,0.421082 0.0237,0.03487 0.0467,0.07025 0.0705,0.104793 0.0595,0.08631 0.11869,0.171011 0.1791,0.25532 0.12022,0.167773 0.24214,0.331769 0.36583,0.491583 0.0618,0.0799 0.12401,0.158356 0.18672,0.236262 0.12543,0.155819 0.25221,0.307597 0.38108,0.455383 0.0977,0.112045 0.19756,0.222218 0.29723,0.329628 0.0315,0.03392 0.0636,0.06752 0.0953,0.100981 0.13259,0.140068 0.26602,0.275847 0.40203,0.407747 0.0678,0.06579 0.13519,0.130595 0.20387,0.194347 0.069,0.06407 0.13782,0.126621 0.20769,0.188632 0.0695,0.06171 0.13922,0.121354 0.20959,0.181009 0.21109,0.174379 0.42758,0.340241 0.64782,0.497298 0.58729,0.418814 1.20729,0.776401 1.86153,1.072716 0.0818,0.03704 0.16294,0.07347 0.24579,0.108607 0.16623,0.07052 0.33436,0.137199 0.50492,0.200062 0.085,0.03133 0.16923,0.06012 0.25532,0.08955 0.0861,0.02943 0.17385,0.05821 0.26104,0.08574 0.0872,0.02754 0.17432,0.05428 0.26293,0.08003 0.17724,0.0515 0.35818,0.100407 0.54113,0.144807 0.0915,0.0222 0.18337,0.04244 0.27627,0.06288 0.0929,0.02045 0.18575,0.04038 0.28009,0.05907 0.0949,0.01881 0.18942,0.0363 0.28581,0.05335 0.19153,0.03389 0.38576,0.06449 0.58303,0.09146 0.29591,0.04046 0.59813,0.07399 0.90695,0.09908 0.20589,0.01675 0.41524,0.03003 0.62687,0.04001 0.21163,0.01 0.42662,0.01574 0.64401,0.01905 0.10869,0.0016 0.21759,0.0019 0.32772,0.0019 0.16794,0 0.33267,-5.5e-5 0.49349,-0.0019 0.32163,-0.0037 0.62874,-0.01156 0.92219,-0.02286 0.14608,-0.0056 0.28954,-0.01151 0.42871,-0.01905 0.13975,-0.0076 0.27681,-0.01709 0.40965,-0.02668 0.39852,-0.02874 0.76598,-0.06525 1.1032,-0.112413 0.0283,0.0113 0.0575,0.02302 0.0857,0.0362 0.004,0.0016 0.008,0.0039 0.0114,0.0057 0.0244,0.01162 0.048,0.02328 0.0724,0.0362 0.16222,0.08302 0.32443,0.191159 0.48587,0.323911 -0.35508,-0.478501 -4.14349,-5.435857 -9.70589,-6.76021 -0.48222,-0.114819 -0.83802,-0.281795 -1.11464,-0.47634 -0.002,-7.94e-4 -0.004,-0.0029 -0.006,-0.0038 -0.21926,-0.09889 -0.43265,-0.205235 -0.63829,-0.320101 -4.3e-4,-2.12e-4 -10e-4,2.09e-4 -0.002,0 -0.0531,-0.03032 -0.10565,-0.06184 -0.15814,-0.09336 -4.3e-4,-2.12e-4 -10e-4,2.12e-4 -0.002,0 -0.053,-0.03182 -0.10385,-0.06413 -0.15624,-0.09717 -0.10519,-0.06636 -0.2096,-0.134458 -0.31247,-0.20578 -0.0512,-0.0355 -0.10178,-0.07187 -0.15243,-0.108606 -0.10202,-0.07399 -0.20136,-0.149629 -0.30105,-0.228642 -0.0495,-0.03921 -0.0978,-0.07768 -0.14671,-0.118134 -0.0493,-0.04075 -0.098,-0.08183 -0.14672,-0.123846 -0.0484,-0.0417 -0.0951,-0.08471 -0.1429,-0.127661 -0.23893,-0.214734 -0.4708,-0.443651 -0.69545,-0.689737 -0.0449,-0.04922 -0.0909,-0.100047 -0.13528,-0.150524 -0.16326,-0.185023 -0.32584,-0.381397 -0.48777,-0.588756 -0.0202,-0.02582 -0.0389,-0.05196 -0.0591,-0.07812 -0.0455,-0.05907 -0.0918,-0.118248 -0.13719,-0.179105 -0.22686,-0.3043 -0.45194,-0.631658 -0.6764,-0.981263 -0.0898,-0.139842 -0.17923,-0.2834 -0.26865,-0.430612 -0.0447,-0.0736 -0.0888,-0.147468 -0.13338,-0.222924 -0.13343,-0.225661 -0.26746,-0.460685 -0.40012,-0.703078 z"
           style="font-style:normal;font-weight:bold;font-size:144px;line-height:125%;font-family:Sans;-inkscape-font-specification:'Sans Bold';letter-spacing:0px;word-spacing:0px;fill:url(#linearGradient4232);fill-opacity:1;stroke:none;stroke-width:0.0978328" /></g><g
         id="g4244"
         transform="matrix(0.26458333,0,0,0.26458333,423.36286,-50.892244)"><path
           d="m 550,377 c 0,0 21.822,6.585 34.5,13 4.399,2.226 12.01,6.668 17.5,12.5 5.378,5.712 8,11.5 8,11.5 L 696,559 557,559.062 492,437 c 0,0 -13.31,-22.869 -21.5,-29.5 -6.832,-5.531 -9.745,-7.5 -16.5,-7.5 -4.702,0 -33.026,0 -33.026,0 L 421,558.974 298,559.026 V 152.938 h 247 c 0,0 112.5,2.029 112.5,109.062 0,107.033 -107.5,115 -107.5,115 z m -53.5,-135.976 -74.463,-0.048 -0.037,69.05 74.5,-0.024 c 0,0 34.5,-0.107 34.5,-35.125 0,-35.722 -34.5,-33.853 -34.5,-33.853 z"
           fill="url(#gradientFill-2)"
           fill-rule="evenodd"
           id="path4242"
           style="fill:url(#linearGradient4246)" /></g></g></g></svg>
